# xmcd
# 
# Track frame offsets:
#     183
#     20843
#     41285
#     59540
#     76043
#     93625
#     108740
#     134438
#     156148
#     172288
#     184003
#     201250
#     215970
#     237280
# 
# Disc length: 3499
# 
# Revision: 3
# Processed by: cddbd v1.5.2PL0 Copyright (c) Steve Scherf et al.
# Submitted via: fre:ac v1.1beta1pre5
# 
DISCID=cf0da90e
DTITLE=Roland - Last Letter Home
DYEAR=1992
DGENRE=Blues
TTITLE0=Mailbox Blues
TTITLE1=Don't This Road Look Rough And Rocky
TTITLE2=Looking For A Friend
TTITLE3=Taking The Midnight Train
TTITLE4=Blues In The Bottle
TTITLE5=If Your Man Gets Busted
TTITLE6=As The Crow Flies
TTITLE7=Mind Is Trying To Leave Me
TTITLE8=Last Letter Home
TTITLE9=Did Somebody Make A Fool
TTITLE10=The Family
TTITLE11=Sidewalk Hobo
TTITLE12=Ready To Roll
TTITLE13=Dedicated Minds
EXTD=YEAR: 1992
EXTT0=
EXTT1=
EXTT2=
EXTT3=
EXTT4=
EXTT5=
EXTT6=
EXTT7=
EXTT8=
EXTT9=
EXTT10=
EXTT11=
EXTT12=
EXTT13=
PLAYORDER=
